<svg xmlns:inkscape="http://www.inkscape.org/namespaces/inkscape" xmlns:sodipodi="http://sodipodi.sourceforge.net/DTD/sodipodi-0.dtd" xmlns="http://www.w3.org/2000/svg" xmlns:svg="http://www.w3.org/2000/svg" width="20mm" height="20mm" viewBox="0 0 20 20" version="1.1" id="svg2308" inkscape:version="1.2.2 (732a01da63, 2022-12-09)" sodipodi:docname="wave logo.svg">
  <sodipodi:namedview id="namedview2310" pagecolor="#ffffff" bordercolor="#000000" borderopacity="0.25" inkscape:showpageshadow="2" inkscape:pageopacity="0.0" inkscape:pagecheckerboard="0" inkscape:deskcolor="#d1d1d1" inkscape:document-units="px" showgrid="false" inkscape:zoom="0.71624579" inkscape:cx="396.51193" inkscape:cy="561.95793" inkscape:window-width="1920" inkscape:window-height="991" inkscape:window-x="-9" inkscape:window-y="-9" inkscape:window-maximized="1" inkscape:current-layer="layer1"/>
  <defs id="defs2305"/>
  <g inkscape:label="Layer 1" inkscape:groupmode="layer" id="layer1">
    <ellipse style="fill:none;stroke:#100079;stroke-width:0.35;stroke-dasharray:none;stroke-opacity:1" id="path851" cx="11.748406" cy="9.1461325" rx="7.7227373" ry="7.7227764" inkscape:transform-center-x="0.38548046" inkscape:transform-center-y="-1.3682436" transform="matrix(0.99233344,0.12358938,-0.12358813,0.9923336,0,0)"/>
    <path style="fill:none;stroke:#100079;stroke-width:0.35;stroke-dasharray:none;stroke-opacity:1" d="M 3.7955781,7.1185244 C 4.0994038,7.0773374 4.278359,7.2513696 4.5312028,7.349113 4.5955208,7.373978 4.6790864,7.336457 4.7364758,7.37468 4.864366,7.459857 4.8703073,7.4904848 5.0615544,7.5541383 c 0.1604688,0.05341 1.9073122,0.2848083 2.0527314,0.2556555 0.050392,-0.010098 0.096914,-0.034255 0.1453705,-0.05138 0.051298,-0.039935 0.091011,-0.1033061 0.1538927,-0.1198051 0.099768,-0.026178 0.2375959,0.055326 0.3421218,0.04261 0.1485939,-0.018087 0.2891104,-0.1246732 0.4361115,-0.1541433 0.092918,-0.018628 0.1905556,-0.010285 0.2822196,-0.034339 0.031441,-0.00825 0.04453,-0.057514 0.076947,-0.059902 0.1146116,-0.00843 0.2337689,0.080905 0.3421216,0.04261 0.2440247,-0.086251 0.5036553,-0.1780173 0.7268534,-0.2569062 0.1094313,-0.038678 0.3643128,0.015922 0.4874921,-0.00877 0.199598,-0.040012 0.17352,-0.2064291 0.376209,-0.2310889 0.155361,-0.018903 0.322656,0.071159 0.478971,0.059653 0.353299,-0.026011 0.679352,0.01512 1.034889,0.059401 0.204931,0.025524 0.952944,0.041879 1.094789,0.1363507 0.09827,0.065451 0.03833,0.1285987 0.111285,0.2223177 0.06314,0.08111 0.193511,0.089827 0.256653,0.1709373 0.0509,0.065391 0.05164,0.164783 0.111284,0.2223178 0.03308,0.031916 0.09859,-0.00843 0.136848,0.017042 0.01913,0.012749 -0.01618,0.046753 -0.0085,0.068424 0.106918,0.3025002 0.0044,-0.073737 0.128329,0.085467 0.04304,0.055287 0.04659,0.2979587 0.09424,0.3591687 0.01413,0.018144 0.0543,-0.00961 0.06843,0.00853 0.01413,0.018144 -0.02265,0.050287 -0.0085,0.068424 0.03157,0.040552 0.09675,0.044912 0.128326,0.085467 0.01413,0.018144 -0.01881,0.047871 -0.0085,0.068427 0.07493,0.1496971 0.158576,0.1279771 0.171187,0.2992634 0.03091,0.419845 -0.03781,0.8615518 -0.09349,1.3085931 -0.02158,0.173319 -0.02378,0.703249 -0.102262,0.821096 -0.13129,0.197124 -0.0245,-0.117977 -0.222317,0.111284 -0.0283,0.0328 0.0061,0.24245 -0.03408,0.273699 -0.04056,0.03157 -0.111797,0.01247 -0.145372,0.05138 -0.173243,0.200779 0.126836,0.08621 -0.09399,0.196753 -0.04596,0.023 -0.111797,0.01247 -0.145371,0.05138 -0.03003,0.03481 0.0028,0.09537 -0.01704,0.136851 -0.02802,0.05866 -0.117856,0.0657 -0.153893,0.119805 -0.01275,0.01913 0.0096,0.0543 -0.0085,0.06843 -0.07478,0.05821 -0.01572,-0.189303 -0.03434,-0.282219 -0.0064,-0.03188 -0.05352,-0.04508 -0.0599,-0.07695 -0.02994,-0.149339 0.04918,-0.41606 -1.86e-4,-0.555918 -0.01532,-0.04334 -0.10861,0.01923 -0.13685,-0.01705 -0.01413,-0.01815 0.02265,-0.05029 0.0085,-0.06843 -0.01413,-0.01815 -0.0543,0.0096 -0.06842,-0.0085 -0.04393,-0.05643 -0.136165,-0.333649 -0.162665,-0.367691 -0.01413,-0.01815 -0.05102,0.0065 -0.06842,-0.0085 -0.04922,-0.04247 -0.0629,-0.122475 -0.119807,-0.153892 -0.08049,-0.04443 -0.197177,0.01688 -0.273696,-0.03409 -0.05411,-0.03604 -0.0657,-0.117858 -0.119807,-0.153895 -0.05133,-0.03419 -0.153941,0.0086 -0.205275,-0.02557 -0.134925,-0.08983 -0.203141,-0.06117 -0.26526,-0.102537 -0.02705,-0.01803 -0.03057,-0.06294 -0.0599,-0.07695 -0.172503,-0.0824 -0.490127,-0.06104 -0.684256,-0.08522 -0.207236,-0.02581 -0.549495,-0.1344714 -0.752668,-0.093742 -0.167907,0.033659 -0.4715441,0.3294859 -0.5471451,0.4877449 -0.019815,0.04148 0.019229,0.108611 -0.017044,0.136849 -0.093719,0.07296 -0.1568663,0.01301 -0.2223168,0.111284 -0.075241,0.112974 -0.047539,0.293895 -0.1195552,0.402026 -0.045938,0.06897 -0.1223631,0.115678 -0.162414,0.188231 -0.1100696,0.199385 -0.081683,0.655855 -0.1107837,0.889522 -0.012923,0.103756 -0.1249804,0.47443 -0.068174,0.547397 0.028239,0.03627 0.098589,-0.0084 0.1368483,0.01704 0.1542128,0.102711 0.1224998,0.3729 0.1541425,0.436114 0.023005,0.04596 0.096755,0.04491 0.1283272,0.08547 0.036802,0.04727 0.025345,0.165082 0.1112834,0.222317 0.019129,0.01275 0.054305,-0.0096 0.068424,0.0085 0.019871,0.02552 0.087592,0.247825 0.1027617,0.290742 0.056803,0.160713 0.039822,0.02653 0.1283273,0.08547 0.09898,0.06592 0.1338972,0.257285 0.2396102,0.307786 0.09021,0.0431 0.457519,0.111467 0.470449,0.128076 0.123941,0.159207 -0.215651,-0.03248 0.05138,0.145372 0.101897,0.06786 2.058229,0.372917 2.249484,0.349647 0.122867,-0.01495 0.236297,-0.07929 0.359166,-0.09424 0.105762,-0.01286 0.237753,0.06353 0.342121,0.04261 0.161755,-0.03243 0.30027,-0.236954 0.453155,-0.290991 0.04334,-0.01532 0.09178,0.02608 0.13685,0.01704 0.147618,-0.02959 0.400197,-0.126183 0.513057,-0.214044 0.01815,-0.01413 -0.0096,-0.05431 0.0085,-0.06843 0.04638,-0.03611 0.273907,0.0013 0.350641,-0.02581 0.06129,-0.02166 0.09015,-0.107026 0.153894,-0.119805 0.06761,-0.01355 0.150863,0.06793 0.205273,0.02556 0.01815,-0.01413 -0.0096,-0.0543 0.0085,-0.06843 0.03029,-0.02358 0.246988,-0.08341 0.290741,-0.102763 0.105333,-0.04659 0.263659,-0.191307 0.376209,-0.231088 0.08667,-0.03063 0.289831,-0.04026 0.359167,-0.09424 0.01814,-0.01413 -0.0096,-0.0543 0.0085,-0.06843 0.07921,-0.06166 0.143106,-0.04962 0.222317,-0.111284 0.161388,-0.12564 0.252994,-0.258748 0.393253,-0.367939 0.112292,-0.08742 0.278993,0.02997 0.350644,-0.02581 0.01814,-0.01413 -0.0096,-0.0543 0.0085,-0.06843 0.09372,-0.07296 0.156864,-0.01301 0.222316,-0.111283 0.0683,-0.102551 -0.05126,-0.0343 0.01704,-0.13685 0.05724,-0.08594 0.175042,-0.07448 0.222317,-0.111283 0.04881,-0.038 -0.0015,-0.220278 0.03408,-0.273702 0.06069,-0.09113 0.165535,-0.213284 0.179458,-0.325078" id="path2085" inkscape:transform-center-x="-0.016060943" inkscape:transform-center-y="-1.018775"/>
  </g>
</svg>